# xmcd
# 
# Track frame offsets:
#     182
#     24395
#     28075
#     45632
#     63292
#     72717
#     76835
#     91967
#     96632
#     102587
#     126522
#     128327
#     146470
#     148372
#     152607
#     183892
#     192972
#     197670
#     207422
#     238057
# 
# Disc length: 3279
# 
# Revision: 14
# Processed by: cddbd v1.5.2PL0 Copyright (c) Steve Scherf et al.
# Submitted via: fre:ac v1.0.17
# 
DISCID=270ccd14
DTITLE=Bach - Johannes-Passion BWV 245 - Gardiner [CD2)
DYEAR=1986
DGENRE=Classical
TTITLE0=St John Passion, BWV245, Pt.2b - aria (E). Und die Kriegsknechte flochten eine Krone von Dornen
TTITLE1=St John Passion, BWV245, Pt.2b - chorus. Durch dein Gefängnis, Gottes Sohn
TTITLE2=St John Passion, BWV245, Pt.2b - aria (E). Die Jüden aber schriien und sprachen
TTITLE3=St John Passion, BWV245, Pt.2b - aria (B). Eilt ihr angefochtnen Seelen - Wohin?
TTITLE4=St John Passion, BWV245, Pt.2b - aria (E). Allda kreuzigten sie ihn
TTITLE5=St John Passion, BWV245, Pt.2b - chorus. In meines Herzens Grunde
TTITLE6=St John Passion, BWV245, Pt.2c - aria (E). Die Kriegsknechte aber, da sie Jesum gekreuziget hatten
TTITLE7=St John Passion, BWV245, Pt.2c - chorus. Er nahm alles wohl in acht
TTITLE8=St John Passion, BWV245, Pt.2c - duet (EJ). Und von Stund an nahm sie der Jünger zu sich
TTITLE9=St John Passion, BWV245, Pt.2c - aria (A). Es ist vollbracht!
TTITLE10=St John Passion, BWV245, Pt.2c - aria (E). Und neiget das Haupt und verschied
TTITLE11=St John Passion, BWV245, Pt.2c - aria (B). Mein teurer Heiland, laß Dich fragen
TTITLE12=St John Passion, BWV245, Pt.2d - aria (E). Und siehe da, der Vorhang im Tempel zerriß
TTITLE13=St John Passion, BWV245, Pt.2d - aria (T). Mein Herz, indem die ganze Welt
TTITLE14=St John Passion, BWV245, Pt.2d - aria (S). Zerfließe, mein Herze
TTITLE15=St John Passion, BWV245, Pt.2d - aria (E). Die Juden aber, dieweil es der Rüsttag war
TTITLE16=St John Passion, BWV245, Pt.2d - chorus. O hilf, Christe, Gottes Sohn
TTITLE17=St John Passion, BWV245, Pt.2d - aria (E). Darnach bat Pilatum Joseph von Arimathia
TTITLE18=St John Passion, BWV245, Pt.2d - chorus. Ruht wohl, ihr heiligen Gebeine
TTITLE19=St John Passion, BWV245, Pt.2d - chorus. Ach Herr, laß dein lieb Engelein
EXTD=ARCHIV 419 326-2 DDD\nBach, Johann Sebastian\nJohannes Passion BWV245 \nThe Monteverdi Choir\nT\nNeill Archer - Tenor\nRufus Müller - Tenor\nDirigent - Elliot Gardiner\n YEAR: 1986
EXTT0=
EXTT1=
EXTT2=
EXTT3=
EXTT4=
EXTT5=
EXTT6=
EXTT7=
EXTT8=
EXTT9=
EXTT10=
EXTT11=
EXTT12=
EXTT13=
EXTT14=
EXTT15=
EXTT16=
EXTT17=
EXTT18=
EXTT19=
PLAYORDER=
